<?xml version="1.0" standalone="no"?>
<!DOCTYPE svg PUBLIC "-//W3C//DTD SVG 20010904//EN"
 "http://www.w3.org/TR/2001/REC-SVG-20010904/DTD/svg10.dtd">
<svg version="1.0" xmlns="http://www.w3.org/2000/svg"
 width="858.000000pt" height="1209.000000pt" viewBox="0 0 858.000000 1209.000000"
 preserveAspectRatio="xMidYMid meet">
<metadata>
Created by potrace 1.15, written by Peter Selinger 2001-2017
</metadata>
<g transform="translate(0.000000,1209.000000) scale(0.100000,-0.100000)"
fill="#000000" stroke="none">
<path d="M4350 11213 c0 -5 0 -173 0 -374 l0 -367 -34 -29 c-252 -222 -762
-429 -1311 -534 -377 -72 -808 -94 -1287 -65 -147 9 -278 16 -290 16 l-23 0
26 -25 c57 -58 670 -198 1149 -264 344 -48 442 -54 965 -60 l510 -6 55 -30
c69 -38 147 -116 183 -183 17 -31 36 -92 48 -152 19 -99 19 -168 19 -3208 0
-1709 -3 -3144 -6 -3189 l-7 -81 -166 2 c-91 2 -173 6 -181 9 -8 3 -75 11
-148 17 -73 6 -143 15 -155 19 -62 23 -192 23 -155 0 10 -7 9 -9 -4 -9 -10 0
-18 5 -18 11 0 5 -4 8 -9 5 -9 -6 -169 26 -212 42 -16 6 -31 7 -40 1 -8 -5
-45 -6 -84 -3 -38 4 -88 8 -110 10 -61 5 -61 5 -40 14 14 6 3 8 -35 7 -30 0
-77 3 -105 7 -27 5 -57 8 -65 8 -8 0 -22 2 -30 5 -28 10 -80 10 -80 0 0 -5 -7
-6 -16 -3 -18 7 -18 8 49 -94 65 -98 239 -329 341 -453 45 -55 95 -117 111
-140 17 -23 40 -50 53 -60 12 -10 29 -31 37 -46 7 -15 52 -66 98 -113 46 -46
98 -104 116 -128 17 -24 31 -41 31 -38 0 3 43 -38 95 -91 52 -54 95 -100 95
-104 0 -4 144 -152 320 -329 l319 -322 -4 -41 c-3 -22 -7 -69 -10 -105 -9
-126 -17 -169 -30 -164 -7 3 -22 -4 -32 -15 -12 -13 -30 -20 -44 -19 -20 3
-25 -2 -27 -24 -2 -16 -8 -28 -13 -28 -9 0 -13 30 -11 78 1 12 -1 22 -3 22 -2
0 -15 -10 -28 -22 -45 -44 -89 -67 -95 -50 -4 14 -48 16 -57 3 -3 -6 -23 -9
-45 -9 -22 0 -38 4 -35 8 3 4 -3 14 -12 21 -15 13 -16 11 -10 -9 6 -23 5 -24
-16 -5 -12 10 -27 23 -35 28 -7 6 -23 19 -35 30 -12 11 -32 25 -44 32 -20 10
-21 10 -10 -8 7 -11 17 -17 23 -15 6 2 11 -2 10 -9 -1 -11 85 -91 184 -172 8
-7 40 -34 71 -60 31 -26 92 -73 135 -103 43 -30 99 -76 126 -101 l47 -45 43
44 c24 24 81 73 128 110 96 74 407 339 489 416 244 229 593 576 669 666 31 36
83 94 116 130 34 36 93 103 131 149 39 47 77 92 85 101 8 9 33 38 55 65 22 28
47 57 55 65 8 9 28 34 44 55 17 22 33 42 36 45 8 6 241 318 284 379 125 178
314 476 417 656 19 33 39 69 46 80 6 11 20 36 29 55 10 19 34 62 53 95 43 77
296 576 340 675 155 342 285 659 372 910 17 47 34 94 39 105 5 11 39 108 75
215 102 303 161 518 270 975 31 127 67 329 90 500 57 420 78 789 64 1155 -11
300 -48 788 -64 839 -2 9 -9 66 -15 126 -14 144 -56 436 -75 522 -8 37 -22
105 -31 151 -8 45 -24 117 -35 160 -11 42 -23 88 -26 102 -25 125 -57 269 -74
335 -11 44 -28 107 -36 140 -8 33 -23 87 -33 120 -10 33 -28 96 -40 140 -22
80 -80 268 -84 272 -1 2 -49 -6 -107 -18 -345 -67 -550 -84 -999 -84 -393 0
-497 6 -770 46 -620 90 -1157 295 -1457 556 -67 59 -93 74 -93 56z m2715
-4133 c-16 -185 -21 -231 -50 -455 -58 -441 -236 -1143 -405 -1595 -17 -47
-40 -112 -51 -145 -11 -33 -27 -74 -35 -92 -7 -17 -14 -34 -14 -37 0 -6 -12
-38 -113 -296 -46 -117 -122 -297 -171 -405 -15 -33 -44 -96 -64 -140 -38 -83
-198 -402 -271 -538 -95 -178 -126 -234 -148 -269 -13 -21 -23 -40 -23 -43 0
-6 -150 -249 -219 -355 -24 -36 -47 -64 -52 -63 -5 2 -8 -3 -6 -10 1 -8 -13
-12 -48 -12 -27 0 -55 -3 -61 -7 -6 -4 -17 1 -26 11 -14 16 -23 17 -74 9 -40
-6 -60 -6 -62 1 -2 6 -13 11 -24 11 -17 0 -18 -3 -8 -15 10 -12 9 -15 -7 -15
-10 0 -24 -5 -29 -10 -7 -7 -11 -6 -11 4 0 8 4 13 8 10 4 -2 10 0 13 5 4 5 2
12 -3 15 -5 4 -12 2 -16 -4 -3 -5 -16 -15 -28 -22 -20 -10 -21 -10 -8 5 7 10
10 17 5 17 -4 0 2 10 13 23 38 40 213 280 291 397 124 188 246 383 307 491 20
35 40 71 45 79 183 293 535 1012 695 1420 103 263 125 320 125 326 0 3 7 20
14 37 8 18 24 59 35 92 11 33 34 98 51 145 169 452 347 1154 405 1595 28 217
30 222 33 115 2 -52 -4 -178 -13 -280z"/>
<path d="M917 10608 c-16 -39 -75 -233 -111 -368 -63 -235 -158 -608 -162
-640 -3 -19 -12 -66 -20 -105 -78 -354 -147 -823 -159 -1070 -2 -44 -4 -82 -5
-85 -2 -3 -3 -67 -4 -143 0 -76 2 -128 6 -115 l6 23 1 -22 c1 -27 26 -31 35
-6 6 15 8 15 17 3 5 -10 12 -11 17 -5 4 6 14 11 22 13 8 2 17 8 18 13 2 5 12
9 23 9 10 0 19 5 19 11 0 5 5 7 10 4 6 -3 10 3 10 13 0 11 7 23 16 26 24 9 28
7 14 -9 -17 -20 -12 -23 25 -14 17 4 22 7 12 8 -15 1 -16 3 -5 15 11 12 15 11
24 -7 11 -20 12 -20 19 4 12 38 26 53 36 37 6 -9 9 -8 10 7 1 11 1 23 0 28 0
4 4 7 10 7 6 0 8 -9 4 -20 -5 -15 -3 -18 9 -14 9 3 16 15 16 25 0 12 5 16 15
12 10 -3 30 10 55 37 22 24 40 37 40 29 0 -12 2 -12 9 0 6 10 11 6 20 -15 11
-28 11 -28 6 -3 -3 18 0 29 10 33 8 3 15 0 16 -7 1 -7 5 -1 9 13 7 21 8 22 9
5 1 -17 3 -17 11 -5 8 12 10 12 10 -5 0 -17 2 -17 10 -5 9 13 10 13 10 0 0
-13 2 -13 9 -1 7 11 10 10 14 -5 3 -11 5 -4 6 16 0 19 21 177 46 350 54 383
138 798 206 1020 58 185 58 185 -6 285 -86 134 -106 166 -151 245 -27 47 -48
88 -46 93 1 4 -3 7 -9 7 -5 0 -7 5 -4 11 4 5 -1 19 -10 29 -10 11 -15 26 -12
35 4 8 2 15 -4 15 -6 0 -8 4 -5 8 3 5 -6 25 -20 45 -34 50 -47 87 -31 87 8 0
8 3 -2 9 -8 5 -9 10 -2 12 6 3 7 9 2 18 -13 21 -32 3 -25 -25 4 -15 2 -24 -6
-24 -6 0 -8 4 -5 10 7 11 -22 70 -34 70 -5 0 -16 3 -25 6 -10 4 -19 -4 -29
-28z"/>
</g>
</svg>
